<svg width="309px" height="70px" xmlns="http://www.w3.org/2000/svg" viewBox="-4.839990234374994 12.57999877929688 509.67998046875 124.84000244140624" style="background: rgb(29, 29, 46);" preserveAspectRatio="xMidYMid"><defs><filter id="editing-vintage" x="-100%" y="-100%" width="300%" height="300%"><feConvolveMatrix in="SourceGraphic" result="extrude" order="9,9" divisor="1" kernelMatrix="1,0,0,0,0,0,0,0,0,0,1,0,0,0,0,0,0,0,0,0,1,0,0,0,0,0,0,0,0,0,1,0,0,0,0,0,0,0,0,0,1,0,0,0,0,0,0,0,0,0,1,0,0,0,0,0,0,0,0,0,1,0,0,0,0,0,0,0,0,0,1,0,0,0,0,0,0,0,0,0,1"> </feConvolveMatrix><feFlood flood-color="#900" result="flood-extrude"></feFlood><feComposite operator="in" in="flood-extrude" in2="extrude" result="extrude-color"></feComposite><feOffset dx="5" dy="5" in="extrude-color" result="extrude-offset"></feOffset><feColorMatrix in="SourceGraphic" result="stroke" type="matrix" values="0 0 0 0 0 0 0 0 0 0 0 0 0 0 0 0 1 0 0 0 "></feColorMatrix><feColorMatrix in="SourceGraphic" result="fill" type="matrix" values="0 0 0 0 0 0 0 0 0 0 0 0 0 0 0 1 0 0 1 0 "></feColorMatrix><feConvolveMatrix in="stroke" result="inner-shadow" order="5,5" divisor="1" kernelMatrix="1 0 0 0 0 0 1 0 0 0 0 0 1 0 0 0 0 0 1 0 0 0 0 0 1 "></feConvolveMatrix><feOffset dx="1" dy="1" in="inner-shadow" result="offset"></feOffset><feComposite operator="in" in="offset" in2="SourceAlpha" result="comp"></feComposite><feFlood flood-color="#000" result="flood3"></feFlood><feComposite operator="in" in="flood3" in2="comp" result="comp2"></feComposite><feColorMatrix in="comp2" result="comp3" type="matrix" values="1 0 0 0 0 0 1 0 0 0 0 0 1 0 0 0 0 0 0.5 0 "></feColorMatrix><feFlood flood-color="#f00" result="flood1"></feFlood><feComposite operator="in" in="flood1" in2="fill" result="fill2"></feComposite><feFlood flood-color="#fff" result="flood2"></feFlood><feComposite operator="in" in="flood2" in2="stroke" result="stroke2"></feComposite><feMerge result="obj"><feMergeNode in="extrude-offset"></feMergeNode><feMergeNode in="fill2"></feMergeNode><feMergeNode in="comp3"></feMergeNode></feMerge><feConvolveMatrix in="SourceAlpha" result="shadow" order="9,9" divisor="1" kernelMatrix="1,0,0,0,0,0,0,0,0,0,1,0,0,0,0,0,0,0,0,0,1,0,0,0,0,0,0,0,0,0,1,0,0,0,0,0,0,0,0,0,1,0,0,0,0,0,0,0,0,0,1,0,0,0,0,0,0,0,0,0,1,0,0,0,0,0,0,0,0,0,1,0,0,0,0,0,0,0,0,0,1"></feConvolveMatrix><feOffset dx="15" dy="15" in="shadow" result="shadow-offset"></feOffset><feFlood flood-color="#444444" result="flood-shadow"></feFlood><feComposite operator="in" in="flood-shadow" in2="shadow-offset" result="shadow-color"></feComposite><feMerge><feMergeNode in="shadow-color"></feMergeNode><feMergeNode in="obj"></feMergeNode></feMerge></filter></defs><g transform="translate(-9,-9)"><g filter="url(#editing-vintage)"><g transform="translate(71.50500273704529, 104.09000015258789)"><path d="M7.23 0.83L8.64-3.84L8.64-3.84Q10.88-2.62 14.21-2.62L14.21-2.62L14.21-2.62Q17.54-2.62 20.32-4.64L20.32-4.64L20.32-4.64Q23.10-6.66 25.09-10.37L25.09-10.37L25.09-10.37Q29.18-18.24 29.18-30.91L29.18-30.91L29.18-30.91Q29.18-38.98 25.54-38.98L25.54-38.98L25.54-38.98Q23.62-38.98 21.76-36.86L21.76-36.86L21.76-36.86Q19.90-34.75 18.43-31.36L18.43-31.36L18.43-31.36Q15.23-23.62 15.23-14.53L15.23-14.53L15.23-14.53Q15.23-12.67 16.13-11.55L16.13-11.55L16.13-11.55Q17.02-10.43 18.62-10.43L18.62-10.43L18.62-10.43Q18.37-8.45 16.64-7.04L16.64-7.04L16.64-7.04Q14.91-5.63 12.74-5.63L12.74-5.63L12.74-5.63Q7.55-5.63 4.90-8.86L4.90-8.86L4.90-8.86Q2.24-12.10 2.24-17.95L2.24-17.95L2.24-17.95Q2.24-23.81 4.03-28.42L4.03-28.42L4.03-28.42Q5.82-33.02 8.96-36.38L8.96-36.38L8.96-36.38Q12.10-39.74 16.42-41.66L16.42-41.66L16.42-41.66Q20.74-43.58 25.86-43.58L25.86-43.58L25.86-43.58Q43.01-43.58 43.01-26.88L43.01-26.88L43.01-26.88Q43.01-14.85 37.25-7.49L37.25-7.49L37.25-7.49Q31.49-0.06 21.50 0.83L21.50 0.83L21.50 0.83Q27.39 2.11 33.34 2.11L33.34 2.11L33.34 2.11Q38.02 2.11 41.47 0.13L41.47 0.13L41.47 0.13Q42.43-0.45 42.82-1.09L42.82-1.09L42.82-1.09Q44.74 0.64 44.74 4.06L44.74 4.06L44.74 4.06Q44.74 7.49 41.70 9.47L41.70 9.47L41.70 9.47Q38.66 11.46 32.74 11.46L32.74 11.46L32.74 11.46Q26.82 11.46 19.97 8.70L19.97 8.70L19.97 8.70Q13.12 5.95 7.23 0.83L7.23 0.83ZM66.62-2.69L66.62-2.69L66.62-2.69Q63.55 1.28 55.94 1.28L55.94 1.28L55.94 1.28Q51.97 1.28 49.09-1.12L49.09-1.12L49.09-1.12Q46.21-3.52 46.21-6.98L46.21-6.98L46.21-6.98Q46.21-8.90 46.40-9.86L46.40-9.86L50.69-32.64L63.68-33.92L59.01-9.22L59.01-9.22Q58.75-7.81 58.75-6.98L58.75-6.98L58.75-6.98Q58.75-3.26 60.99-3.26L60.99-3.26L60.99-3.26Q63.49-3.26 65.28-6.66L65.28-6.66L65.28-6.66Q65.86-7.74 66.11-9.15L66.11-9.15L70.66-32.64L83.26-33.92L78.53-8.96L78.53-8.96Q78.34-8 78.34-6.98L78.34-6.98L78.34-6.98Q78.34-5.95 78.91-4.83L78.91-4.83L78.91-4.83Q79.49-3.71 81.34-3.46L81.34-3.46L81.34-3.46Q80.96-1.92 79.62-0.90L79.62-0.90L79.62-0.90Q76.80 1.28 73.76 1.28L73.76 1.28L73.76 1.28Q70.72 1.28 68.93 0.19L68.93 0.19L68.93 0.19Q67.14-0.90 66.62-2.69ZM112.38-10.82L112.38-10.82L112.38-10.82Q113.98-9.73 113.98-7.33L113.98-7.33L113.98-7.33Q113.98-4.93 112.77-3.39L112.77-3.39L112.77-3.39Q111.55-1.86 109.57-0.83L109.57-0.83L109.57-0.83Q105.47 1.28 101.06 1.28L101.06 1.28L101.06 1.28Q96.64 1.28 94.05 0.32L94.05 0.32L94.05 0.32Q91.46-0.64 89.73-2.43L89.73-2.43L89.73-2.43Q86.34-5.82 86.34-12.03L86.34-12.03L86.34-12.03Q86.34-21.70 91.58-27.58L91.58-27.58L91.58-27.58Q97.22-33.92 107.01-33.92L107.01-33.92L107.01-33.92Q113.09-33.92 116.10-31.36L116.10-31.36L116.10-31.36Q118.34-29.44 118.34-26.30L118.34-26.30L118.34-26.30Q118.34-15.04 98.88-15.04L98.88-15.04L98.88-15.04Q98.62-13.38 98.62-11.97L98.62-11.97L98.62-11.97Q98.62-9.02 99.94-7.90L99.94-7.90L99.94-7.90Q101.25-6.78 103.68-6.78L103.68-6.78L103.68-6.78Q106.11-6.78 108.70-7.90L108.70-7.90L108.70-7.90Q111.30-9.02 112.38-10.82ZM99.33-17.79L99.33-17.79L99.33-17.79Q103.87-17.79 106.50-20.61L106.50-20.61L106.50-20.61Q109.12-23.30 109.12-27.58L109.12-27.58L109.12-27.58Q109.12-29.06 108.58-29.86L108.58-29.86L108.58-29.86Q108.03-30.66 106.94-30.66L106.94-30.66L106.94-30.66Q105.86-30.66 104.93-30.24L104.93-30.24L104.93-30.24Q104-29.82 103.04-28.42L103.04-28.42L103.04-28.42Q100.67-25.22 99.33-17.79ZM140.54-17.98L140.54-17.98L140.54-17.98Q142.85-22.08 142.85-26.24L142.85-26.24L142.85-26.24Q142.85-28.99 140.86-28.99L140.86-28.99L140.86-28.99Q139.33-28.99 137.73-26.37L137.73-26.37L137.73-26.37Q136.06-23.74 135.55-20.35L135.55-20.35L132.22 0L118.98 1.28L125.50-32.64L136.06-33.92L134.91-27.46L134.91-27.46Q138.05-33.92 145.09-33.92L145.09-33.92L145.09-33.92Q148.80-33.92 150.82-32L150.82-32L150.82-32Q152.83-30.08 152.83-26.14L152.83-26.14L152.83-26.14Q152.83-22.21 150.24-19.71L150.24-19.71L150.24-19.71Q147.65-17.22 143.23-17.22L143.23-17.22L143.23-17.22Q141.31-17.22 140.54-17.98ZM167.81 1.28L167.81 1.28L167.81 1.28Q153.73 1.28 153.73-11.97L153.73-11.97L153.73-11.97Q153.73-21.38 158.91-27.46L158.91-27.46L158.91-27.46Q164.42-33.92 173.95-33.92L173.95-33.92L173.95-33.92Q180.86-33.92 184.38-30.72L184.38-30.72L184.38-30.72Q187.90-27.52 187.90-20.80L187.90-20.80L187.90-20.80Q187.90-10.56 182.40-4.61L182.40-4.61L182.40-4.61Q177.02 1.28 167.81 1.28ZM169.47-26.56L169.47-26.56L169.47-26.56Q168.70-24.83 168.10-22.24L168.10-22.24L168.10-22.24Q167.49-19.65 166.72-15.55L166.72-15.55L166.72-15.55Q165.95-11.46 165.95-6.40L165.95-6.40L165.95-6.40Q165.95-4.74 166.50-3.65L166.50-3.65L166.50-3.65Q167.04-2.56 168.51-2.56L168.51-2.56L168.51-2.56Q169.98-2.56 170.91-3.26L170.91-3.26L170.91-3.26Q171.84-3.97 172.54-5.63L172.54-5.63L172.54-5.63Q173.82-8.58 174.85-14.05L174.85-14.05L174.85-14.05Q175.87-19.52 175.97-21.89L175.97-21.89L175.97-21.89Q176.06-24.26 176.06-26.02L176.06-26.02L176.06-26.02Q176.06-27.78 175.55-28.93L175.55-28.93L175.55-28.93Q175.04-30.08 173.60-30.08L173.60-30.08L173.60-30.08Q172.16-30.08 171.20-29.18L171.20-29.18L171.20-29.18Q170.24-28.29 169.47-26.56ZM216.70-42.69L216.70-42.69L216.70-42.69Q232.38-42.69 232.38-31.62L232.38-31.62L232.38-31.62Q232.38-25.54 228.48-21.89L228.48-21.89L228.48-21.89Q224.64-18.24 217.92-18.24L217.92-18.24L217.92-18.24Q214.78-18.24 212.35-20.03L212.35-20.03L212.35-20.03Q211.20-20.80 210.43-21.82L210.43-21.82L210.43-21.82Q215.10-21.82 217.57-24.67L217.57-24.67L217.57-24.67Q220.03-27.52 220.03-33.09L220.03-33.09L220.03-33.09Q220.03-38.66 214.53-38.66L214.53-38.66L212.99-38.66L212.99-38.66Q212.61-38.66 212.29-38.59L212.29-38.59L204.93 0L191.04 0L198.91-41.92L198.91-41.92Q205.76-42.56 209.73-42.62L209.73-42.62L209.73-42.62Q213.70-42.69 216.70-42.69ZM248.06-3.52L248.06-3.52L248.06-3.52Q246.08 1.28 239.74 1.28L239.74 1.28L239.74 1.28Q236.48 1.28 234.43-0.96L234.43-0.96L234.43-0.96Q232.70-2.94 232.70-4.93L232.70-4.93L232.70-4.93Q232.70-10.11 235.07-20.22L235.07-20.22L237.44-32.64L250.43-33.92L246.53-13.70L246.53-13.70Q245.44-8.96 245.44-7.30L245.44-7.30L245.44-7.30Q245.44-3.65 248.06-3.52ZM238.59-41.54L238.59-41.54L238.59-41.54Q238.59-44.03 240.67-45.38L240.67-45.38L240.67-45.38Q242.75-46.72 245.76-46.72L245.76-46.72L245.76-46.72Q248.77-46.72 250.59-45.38L250.59-45.38L250.59-45.38Q252.42-44.03 252.42-41.54L252.42-41.54L252.42-41.54Q252.42-39.04 250.40-37.76L250.40-37.76L250.40-37.76Q248.38-36.48 245.38-36.48L245.38-36.48L245.38-36.48Q242.37-36.48 240.48-37.76L240.48-37.76L240.48-37.76Q238.59-39.04 238.59-41.54ZM265.82 0.64L265.82 0.64L265.82 0.64Q262.78 0 261.22-0.29L261.22-0.29L261.22-0.29Q259.65-0.58 257.82-0.58L257.82-0.58L257.82-0.58Q256-0.58 254.21 0.06L254.21 0.06L254.21 0.06Q253.25-0.51 252.64-1.66L252.64-1.66L252.64-1.66Q252.03-2.82 252.03-4.61L252.03-4.61L252.03-4.61Q252.03-8.38 255.87-11.26L255.87-11.26L272.13-22.98L272.13-22.98Q267.58-24.26 263.46-24.26L263.46-24.26L263.46-24.26Q259.33-24.26 257.86-21.44L257.86-21.44L257.86-21.44Q255.68-24 255.68-28.03L255.68-28.03L255.68-28.03Q255.68-30.72 257.63-32.48L257.63-32.48L257.63-32.48Q259.58-34.24 263.68-34.24L263.68-34.24L263.68-34.24Q265.98-34.24 268.06-33.95L268.06-33.95L268.06-33.95Q270.14-33.66 272-33.41L272-33.41L275.46-32.90L275.46-32.90Q277.12-32.64 278.82-32.64L278.82-32.64L278.82-32.64Q280.51-32.64 281.79-33.34L281.79-33.34L281.79-33.34Q283.46-31.81 283.46-29.70L283.46-29.70L283.46-29.70Q283.46-26.37 279.36-22.91L279.36-22.91L263.17-10.82L263.17-10.82Q268.16-9.34 270.72-9.34L270.72-9.34L270.72-9.34Q276.10-9.34 278.40-11.90L278.40-11.90L278.40-11.90Q280.19-9.86 280.19-6.30L280.19-6.30L280.19-6.30Q280.19-2.75 277.89-0.74L277.89-0.74L277.89-0.74Q275.58 1.28 271.42 1.28L271.42 1.28L271.42 1.28Q268.86 1.28 265.82 0.64ZM298.08 0.64L298.08 0.64L298.08 0.64Q295.04 0 293.47-0.29L293.47-0.29L293.47-0.29Q291.90-0.58 290.08-0.58L290.08-0.58L290.08-0.58Q288.26-0.58 286.46 0.06L286.46 0.06L286.46 0.06Q285.50-0.51 284.90-1.66L284.90-1.66L284.90-1.66Q284.29-2.82 284.29-4.61L284.29-4.61L284.29-4.61Q284.29-8.38 288.13-11.26L288.13-11.26L304.38-22.98L304.38-22.98Q299.84-24.26 295.71-24.26L295.71-24.26L295.71-24.26Q291.58-24.26 290.11-21.44L290.11-21.44L290.11-21.44Q287.94-24 287.94-28.03L287.94-28.03L287.94-28.03Q287.94-30.72 289.89-32.48L289.89-32.48L289.89-32.48Q291.84-34.24 295.94-34.24L295.94-34.24L295.94-34.24Q298.24-34.24 300.32-33.95L300.32-33.95L300.32-33.95Q302.40-33.66 304.26-33.41L304.26-33.41L307.71-32.90L307.71-32.90Q309.38-32.64 311.07-32.64L311.07-32.64L311.07-32.64Q312.77-32.64 314.05-33.34L314.05-33.34L314.05-33.34Q315.71-31.81 315.71-29.70L315.71-29.70L315.71-29.70Q315.71-26.37 311.62-22.91L311.62-22.91L295.42-10.82L295.42-10.82Q300.42-9.34 302.98-9.34L302.98-9.34L302.98-9.34Q308.35-9.34 310.66-11.90L310.66-11.90L310.66-11.90Q312.45-9.86 312.45-6.30L312.45-6.30L312.45-6.30Q312.45-2.75 310.14-0.74L310.14-0.74L310.14-0.74Q307.84 1.28 303.68 1.28L303.68 1.28L303.68 1.28Q301.12 1.28 298.08 0.64ZM320.80-1.92L320.80-1.92L320.80-1.92Q319.30-3.58 318.62-6.21L318.62-6.21L318.62-6.21Q317.95-8.83 317.95-13.12L317.95-13.12L317.95-13.12Q317.95-17.41 319.42-21.31L319.42-21.31L319.42-21.31Q320.90-25.22 323.58-28.03L323.58-28.03L323.58-28.03Q329.09-33.92 338.18-33.92L338.18-33.92L338.18-33.92Q341.44-33.92 343.81-32.83L343.81-32.83L354.75-33.92L350.02-8.96L350.02-8.96Q349.82-8.19 349.82-6.78L349.82-6.78L349.82-6.78Q349.82-5.38 350.69-4.48L350.69-4.48L350.69-4.48Q351.55-3.58 352.83-3.46L352.83-3.46L352.83-3.46Q352.19-1.28 349.86 0L349.86 0L349.86 0Q347.52 1.28 344.90 1.28L344.90 1.28L344.90 1.28Q342.27 1.28 340.51 0.29L340.51 0.29L340.51 0.29Q338.75-0.70 338.24-2.37L338.24-2.37L338.24-2.37Q337.22-0.77 335.04 0.26L335.04 0.26L335.04 0.26Q332.86 1.28 329.95 1.28L329.95 1.28L329.95 1.28Q327.04 1.28 324.67 0.51L324.67 0.51L324.67 0.51Q322.30-0.26 320.80-1.92ZM334.30-27.90L334.30-27.90L334.30-27.90Q333.57-26.75 332.93-24.80L332.93-24.80L332.93-24.80Q332.29-22.85 331.23-17.63L331.23-17.63L331.23-17.63Q330.18-12.42 330.18-8.70L330.18-8.70L330.18-8.70Q330.18-4.99 330.75-3.90L330.75-3.90L330.75-3.90Q331.33-2.82 332.35-2.82L332.35-2.82L332.35-2.82Q334.40-2.82 335.90-4.77L335.90-4.77L335.90-4.77Q337.41-6.72 337.98-10.18L337.98-10.18L341.38-28.93L341.38-28.93Q340.03-30.08 338.46-30.08L338.46-30.08L338.46-30.08Q336.90-30.08 335.97-29.57L335.97-29.57L335.97-29.57Q335.04-29.06 334.30-27.90Z" fill="#f00" stroke="#0f0" stroke-width="1.8"></path></g></g><g><g transform="translate(71.50499510765076, 104.08999633789062)"><path d="M7.23 0.83L8.64-3.84L8.64-3.84Q10.88-2.62 14.21-2.62L14.21-2.62L14.21-2.62Q17.54-2.62 20.32-4.64L20.32-4.64L20.32-4.64Q23.10-6.66 25.09-10.37L25.09-10.37L25.09-10.37Q29.18-18.24 29.18-30.91L29.18-30.91L29.18-30.91Q29.18-38.98 25.54-38.98L25.54-38.98L25.54-38.98Q23.62-38.98 21.76-36.86L21.76-36.86L21.76-36.86Q19.90-34.75 18.43-31.36L18.43-31.36L18.43-31.36Q15.23-23.62 15.23-14.53L15.23-14.53L15.23-14.53Q15.23-12.67 16.13-11.55L16.13-11.55L16.13-11.55Q17.02-10.43 18.62-10.43L18.62-10.43L18.62-10.43Q18.37-8.45 16.64-7.04L16.64-7.04L16.64-7.04Q14.91-5.63 12.74-5.63L12.74-5.63L12.74-5.63Q7.55-5.63 4.90-8.86L4.90-8.86L4.90-8.86Q2.24-12.10 2.24-17.95L2.24-17.95L2.24-17.95Q2.24-23.81 4.03-28.42L4.03-28.42L4.03-28.42Q5.82-33.02 8.96-36.38L8.96-36.38L8.96-36.38Q12.10-39.74 16.42-41.66L16.42-41.66L16.42-41.66Q20.74-43.58 25.86-43.58L25.86-43.58L25.86-43.58Q43.01-43.58 43.01-26.88L43.01-26.88L43.01-26.88Q43.01-14.85 37.25-7.49L37.25-7.49L37.25-7.49Q31.49-0.06 21.50 0.83L21.50 0.83L21.50 0.83Q27.39 2.11 33.34 2.11L33.34 2.11L33.34 2.11Q38.02 2.11 41.47 0.13L41.47 0.13L41.47 0.13Q42.43-0.45 42.82-1.09L42.82-1.09L42.82-1.09Q44.74 0.64 44.74 4.06L44.74 4.06L44.74 4.06Q44.74 7.49 41.70 9.47L41.70 9.47L41.70 9.47Q38.66 11.46 32.74 11.46L32.74 11.46L32.74 11.46Q26.82 11.46 19.97 8.70L19.97 8.70L19.97 8.70Q13.12 5.95 7.23 0.83L7.23 0.83ZM66.62-2.69L66.62-2.69L66.62-2.69Q63.55 1.28 55.94 1.28L55.94 1.28L55.94 1.28Q51.97 1.28 49.09-1.12L49.09-1.12L49.09-1.12Q46.21-3.52 46.21-6.98L46.21-6.98L46.21-6.98Q46.21-8.90 46.40-9.86L46.40-9.86L50.69-32.64L63.68-33.92L59.01-9.22L59.01-9.22Q58.75-7.81 58.75-6.98L58.75-6.98L58.75-6.98Q58.75-3.26 60.99-3.26L60.99-3.26L60.99-3.26Q63.49-3.26 65.28-6.66L65.28-6.66L65.28-6.66Q65.86-7.74 66.11-9.15L66.11-9.15L70.66-32.64L83.26-33.92L78.53-8.96L78.53-8.96Q78.34-8 78.34-6.98L78.34-6.98L78.34-6.98Q78.34-5.95 78.91-4.83L78.91-4.83L78.91-4.83Q79.49-3.71 81.34-3.46L81.34-3.46L81.34-3.46Q80.96-1.92 79.62-0.90L79.62-0.90L79.62-0.90Q76.80 1.28 73.76 1.28L73.76 1.28L73.76 1.28Q70.72 1.28 68.93 0.19L68.93 0.19L68.93 0.19Q67.14-0.90 66.62-2.69ZM112.38-10.82L112.38-10.82L112.38-10.82Q113.98-9.73 113.98-7.33L113.98-7.33L113.98-7.33Q113.98-4.93 112.77-3.39L112.77-3.39L112.77-3.39Q111.55-1.86 109.57-0.83L109.57-0.83L109.57-0.83Q105.47 1.28 101.06 1.28L101.06 1.28L101.06 1.28Q96.64 1.28 94.05 0.32L94.05 0.32L94.05 0.32Q91.46-0.64 89.73-2.43L89.73-2.43L89.73-2.43Q86.34-5.82 86.34-12.03L86.34-12.03L86.34-12.03Q86.34-21.70 91.58-27.58L91.58-27.58L91.58-27.58Q97.22-33.92 107.01-33.92L107.01-33.92L107.01-33.92Q113.09-33.92 116.10-31.36L116.10-31.36L116.10-31.36Q118.34-29.44 118.34-26.30L118.34-26.30L118.34-26.30Q118.34-15.04 98.88-15.04L98.88-15.04L98.88-15.04Q98.62-13.38 98.62-11.97L98.62-11.97L98.62-11.97Q98.62-9.02 99.94-7.90L99.94-7.90L99.94-7.90Q101.25-6.78 103.68-6.78L103.68-6.78L103.68-6.78Q106.11-6.78 108.70-7.90L108.70-7.90L108.70-7.90Q111.30-9.02 112.38-10.82ZM99.33-17.79L99.33-17.79L99.33-17.79Q103.87-17.79 106.50-20.61L106.50-20.61L106.50-20.61Q109.12-23.30 109.12-27.58L109.12-27.58L109.12-27.58Q109.12-29.06 108.58-29.86L108.58-29.86L108.58-29.86Q108.03-30.66 106.94-30.66L106.94-30.66L106.94-30.66Q105.86-30.66 104.93-30.24L104.93-30.24L104.93-30.24Q104-29.82 103.04-28.42L103.04-28.42L103.04-28.42Q100.67-25.22 99.33-17.79ZM140.54-17.98L140.54-17.98L140.54-17.98Q142.85-22.08 142.85-26.24L142.85-26.24L142.85-26.24Q142.85-28.99 140.86-28.99L140.86-28.99L140.86-28.99Q139.33-28.99 137.73-26.37L137.73-26.37L137.73-26.37Q136.06-23.74 135.55-20.35L135.55-20.35L132.22 0L118.98 1.28L125.50-32.64L136.06-33.92L134.91-27.46L134.91-27.46Q138.05-33.92 145.09-33.92L145.09-33.92L145.09-33.92Q148.80-33.92 150.82-32L150.82-32L150.82-32Q152.83-30.08 152.83-26.14L152.83-26.14L152.83-26.14Q152.83-22.21 150.24-19.71L150.24-19.71L150.24-19.71Q147.65-17.22 143.23-17.22L143.23-17.22L143.23-17.22Q141.31-17.22 140.54-17.98ZM167.81 1.28L167.81 1.28L167.81 1.28Q153.73 1.28 153.73-11.97L153.73-11.97L153.73-11.97Q153.73-21.38 158.91-27.46L158.91-27.46L158.91-27.46Q164.42-33.92 173.95-33.92L173.95-33.92L173.95-33.92Q180.86-33.92 184.38-30.72L184.38-30.72L184.38-30.72Q187.90-27.52 187.90-20.80L187.90-20.80L187.90-20.80Q187.90-10.56 182.40-4.61L182.40-4.61L182.40-4.61Q177.02 1.28 167.81 1.28ZM169.47-26.56L169.47-26.56L169.47-26.56Q168.70-24.83 168.10-22.24L168.10-22.24L168.10-22.24Q167.49-19.65 166.72-15.55L166.72-15.55L166.72-15.55Q165.95-11.46 165.95-6.40L165.95-6.40L165.95-6.40Q165.95-4.74 166.50-3.65L166.50-3.65L166.50-3.65Q167.04-2.56 168.51-2.56L168.51-2.56L168.51-2.56Q169.98-2.56 170.91-3.26L170.91-3.26L170.91-3.26Q171.84-3.97 172.54-5.63L172.54-5.63L172.54-5.63Q173.82-8.58 174.85-14.05L174.85-14.05L174.85-14.05Q175.87-19.52 175.97-21.89L175.97-21.89L175.97-21.89Q176.06-24.26 176.06-26.02L176.06-26.02L176.06-26.02Q176.06-27.78 175.55-28.93L175.55-28.93L175.55-28.93Q175.04-30.08 173.60-30.08L173.60-30.08L173.60-30.08Q172.16-30.08 171.20-29.18L171.20-29.18L171.20-29.18Q170.24-28.29 169.47-26.56ZM216.70-42.69L216.70-42.69L216.70-42.69Q232.38-42.69 232.38-31.62L232.38-31.62L232.38-31.62Q232.38-25.54 228.48-21.89L228.48-21.89L228.48-21.89Q224.64-18.24 217.92-18.24L217.92-18.24L217.92-18.24Q214.78-18.24 212.35-20.03L212.35-20.03L212.35-20.03Q211.20-20.80 210.43-21.82L210.43-21.82L210.43-21.82Q215.10-21.82 217.57-24.67L217.57-24.67L217.57-24.67Q220.03-27.52 220.03-33.09L220.03-33.09L220.03-33.09Q220.03-38.66 214.53-38.66L214.53-38.66L212.99-38.66L212.99-38.66Q212.61-38.66 212.29-38.59L212.29-38.59L204.93 0L191.04 0L198.91-41.92L198.91-41.92Q205.76-42.56 209.73-42.62L209.73-42.62L209.73-42.62Q213.70-42.69 216.70-42.69ZM248.06-3.52L248.06-3.52L248.06-3.52Q246.08 1.28 239.74 1.28L239.74 1.28L239.74 1.28Q236.48 1.28 234.43-0.96L234.43-0.96L234.43-0.96Q232.70-2.94 232.70-4.93L232.70-4.93L232.70-4.93Q232.70-10.11 235.07-20.22L235.07-20.22L237.44-32.64L250.43-33.92L246.53-13.70L246.53-13.70Q245.44-8.96 245.44-7.30L245.44-7.30L245.44-7.30Q245.44-3.65 248.06-3.52ZM238.59-41.54L238.59-41.54L238.59-41.54Q238.59-44.03 240.67-45.38L240.67-45.38L240.67-45.38Q242.75-46.72 245.76-46.72L245.76-46.72L245.76-46.72Q248.77-46.72 250.59-45.38L250.59-45.38L250.59-45.38Q252.42-44.03 252.42-41.54L252.42-41.54L252.42-41.54Q252.42-39.04 250.40-37.76L250.40-37.76L250.40-37.76Q248.38-36.48 245.38-36.48L245.38-36.48L245.38-36.48Q242.37-36.48 240.48-37.76L240.48-37.76L240.48-37.76Q238.59-39.04 238.59-41.54ZM265.82 0.64L265.82 0.64L265.82 0.64Q262.78 0 261.22-0.29L261.22-0.29L261.22-0.29Q259.65-0.58 257.82-0.58L257.82-0.58L257.82-0.58Q256-0.58 254.21 0.06L254.21 0.06L254.21 0.06Q253.25-0.51 252.64-1.66L252.64-1.66L252.64-1.66Q252.03-2.82 252.03-4.61L252.03-4.61L252.03-4.61Q252.03-8.38 255.87-11.26L255.87-11.26L272.13-22.98L272.13-22.98Q267.58-24.26 263.46-24.26L263.46-24.26L263.46-24.26Q259.33-24.26 257.86-21.44L257.86-21.44L257.86-21.44Q255.68-24 255.68-28.03L255.68-28.03L255.68-28.03Q255.68-30.72 257.63-32.48L257.63-32.48L257.63-32.48Q259.58-34.24 263.68-34.24L263.68-34.24L263.68-34.24Q265.98-34.24 268.06-33.95L268.06-33.95L268.06-33.95Q270.14-33.66 272-33.41L272-33.41L275.46-32.90L275.46-32.90Q277.12-32.64 278.82-32.64L278.82-32.64L278.82-32.64Q280.51-32.64 281.79-33.34L281.79-33.34L281.79-33.34Q283.46-31.81 283.46-29.70L283.46-29.70L283.46-29.70Q283.46-26.37 279.36-22.91L279.36-22.91L263.17-10.82L263.17-10.82Q268.16-9.34 270.72-9.34L270.72-9.34L270.72-9.34Q276.10-9.34 278.40-11.90L278.40-11.90L278.40-11.90Q280.19-9.86 280.19-6.30L280.19-6.30L280.19-6.30Q280.19-2.75 277.89-0.74L277.89-0.74L277.89-0.74Q275.58 1.28 271.42 1.28L271.42 1.28L271.42 1.28Q268.86 1.28 265.82 0.64ZM298.08 0.64L298.08 0.64L298.08 0.64Q295.04 0 293.47-0.29L293.47-0.29L293.47-0.29Q291.90-0.58 290.08-0.58L290.08-0.58L290.08-0.58Q288.26-0.58 286.46 0.06L286.46 0.06L286.46 0.06Q285.50-0.51 284.90-1.66L284.90-1.66L284.90-1.66Q284.29-2.82 284.29-4.61L284.29-4.61L284.29-4.61Q284.29-8.38 288.13-11.26L288.13-11.26L304.38-22.98L304.38-22.98Q299.84-24.26 295.71-24.26L295.71-24.26L295.71-24.26Q291.58-24.26 290.11-21.44L290.11-21.44L290.11-21.44Q287.94-24 287.94-28.03L287.94-28.03L287.94-28.03Q287.94-30.72 289.89-32.48L289.89-32.48L289.89-32.48Q291.84-34.24 295.94-34.24L295.94-34.24L295.94-34.24Q298.24-34.24 300.32-33.95L300.32-33.95L300.32-33.95Q302.40-33.66 304.26-33.41L304.26-33.41L307.71-32.90L307.71-32.90Q309.38-32.64 311.07-32.64L311.07-32.64L311.07-32.64Q312.77-32.64 314.05-33.34L314.05-33.34L314.05-33.34Q315.71-31.81 315.71-29.70L315.71-29.70L315.71-29.70Q315.71-26.37 311.62-22.91L311.62-22.91L295.42-10.82L295.42-10.82Q300.42-9.34 302.98-9.34L302.98-9.34L302.98-9.34Q308.35-9.34 310.66-11.90L310.66-11.90L310.66-11.90Q312.45-9.86 312.45-6.30L312.45-6.30L312.45-6.30Q312.45-2.75 310.14-0.74L310.14-0.74L310.14-0.74Q307.84 1.28 303.68 1.28L303.68 1.28L303.68 1.28Q301.12 1.28 298.08 0.64ZM320.80-1.92L320.80-1.92L320.80-1.92Q319.30-3.58 318.62-6.21L318.62-6.21L318.62-6.21Q317.95-8.83 317.95-13.12L317.95-13.12L317.95-13.12Q317.95-17.41 319.42-21.31L319.42-21.31L319.42-21.31Q320.90-25.22 323.58-28.03L323.58-28.03L323.58-28.03Q329.09-33.92 338.18-33.92L338.18-33.92L338.18-33.92Q341.44-33.92 343.81-32.83L343.81-32.83L354.75-33.92L350.02-8.96L350.02-8.96Q349.82-8.19 349.82-6.78L349.82-6.78L349.82-6.78Q349.82-5.38 350.69-4.48L350.69-4.48L350.69-4.48Q351.55-3.58 352.83-3.46L352.83-3.46L352.83-3.46Q352.19-1.28 349.86 0L349.86 0L349.86 0Q347.52 1.28 344.90 1.28L344.90 1.28L344.90 1.28Q342.27 1.28 340.51 0.29L340.51 0.29L340.51 0.29Q338.75-0.70 338.24-2.37L338.24-2.37L338.24-2.37Q337.22-0.77 335.04 0.26L335.04 0.26L335.04 0.26Q332.86 1.28 329.95 1.28L329.95 1.28L329.95 1.28Q327.04 1.28 324.67 0.51L324.67 0.51L324.67 0.51Q322.30-0.26 320.80-1.92ZM334.30-27.90L334.30-27.90L334.30-27.90Q333.57-26.75 332.93-24.80L332.93-24.80L332.93-24.80Q332.29-22.85 331.23-17.63L331.23-17.63L331.23-17.63Q330.18-12.42 330.18-8.70L330.18-8.70L330.18-8.70Q330.18-4.99 330.75-3.90L330.75-3.90L330.75-3.90Q331.33-2.82 332.35-2.82L332.35-2.82L332.35-2.82Q334.40-2.82 335.90-4.77L335.90-4.77L335.90-4.77Q337.41-6.72 337.98-10.18L337.98-10.18L341.38-28.93L341.38-28.93Q340.03-30.08 338.46-30.08L338.46-30.08L338.46-30.08Q336.90-30.08 335.97-29.57L335.97-29.57L335.97-29.57Q335.04-29.06 334.30-27.90Z" fill="none" stroke="#fff" stroke-width="2.1"></path></g></g></g><style>text {
  font-size: 64px;
  font-family: Arial Black;
  dominant-baseline: central;
  text-anchor: middle;
}</style></svg>